<svg xmlns="http://www.w3.org/2000/svg" viewBox="0 0 60 50">
  <style>
    /* Si el navegador está en modo oscuro, iluminamos el trazo oscuro */
    @media (prefers-color-scheme: dark) {
      .hand { fill: #fce7f3; } /* Un rosa muy pálido para modo oscuro */
    }
    @media (prefers-color-scheme: light) {
      .hand { fill: #1f2937; } /* Gris oscuro para modo claro */
    }
  </style>

  <path class="hand" d="M35.5,12.3c-3.9-1.5-8.1-1.1-11.7,1.1c-1.5,0.9-2.9,2.1-4,3.5c-4.7,5.8-6.1,13.7-3.7,20.8c0.5,1.4,1.1,2.8,1.9,4
    c0.6,0.9,1.8,1.4,2.8,1.1c1.1-0.3,1.7-1.4,1.5-2.5c-0.4-2.1-0.3-4.2,0.2-6.3c0.9-3.8,2.9-7.3,5.8-9.9c2.6-2.4,5.9-4,9.4-4.6
    c2.3-0.4,4.7-0.4,6.9,0.1c1,0.2,2.1-0.4,2.5-1.4C47.5,17.2,46.7,16.1,45.7,15.7C42.5,14.2,39.1,13.2,35.5,12.3z" fill="#1f2937"/>
  
  <path fill="#ec4899" d="M18.5,10.3l-2.5,2.5l-2.5-2.5l2.5-2.5L18.5,10.3z M48.5,25.3l-1.5,1.5l-1.5-1.5l1.5-1.5L48.5,25.3z"/>
</svg>